# xmcd
#
# Track frame offsets: 
#        150
#        11592
#        27137
#        38812
#        56435
#        75085
#        91150
#        104515
#        124162
#        134615
#        147357
#        160227
#        171727
#        186832
#        199235
#        210305
#        221812
#        231627
#        244680
#        258822
#        269885
#        280325
#        290957
#
# Disc length: 4018 seconds
#
# Revision: 0
# Processed by: cddbd v1.5.1PL0 Copyright (c) Steve Scherf et al.
# Submitted via: ExactAudioCopy v0.95a4
#
DISCID=640fb017
DTITLE=George Morgan - Candy Kisses - Disc 6
DYEAR=1900
DGENRE=Country
TTITLE0=Trees
TTITLE1=Mother Machree
TTITLE2=Smilin' Thru
TTITLE3=Mighty Like A Rose
TTITLE4=Beautiful Dreamer
TTITLE5=Galway Bay
TTITLE6=Memories
TTITLE7=Danny Boy
TTITLE8=The Rosary
TTITLE9=The Old Refrain
TTITLE10=Across The Wide Missouri
TTITLE11=Dear Little Boy Of Mine
TTITLE12=Every Day Of My Life
TTITLE13=Don't You Know Me
TTITLE14=Our Love
TTITLE15=Lonely Room
TTITLE16=Let Me Live And Love Today
TTITLE17=I Can Hear My Heart Break
TTITLE18=Have I Ever Been Untrue
TTITLE19=Blue Snowfall
TTITLE20=Beyond My Heart
TTITLE21=Macht Night
TTITLE22=Where Is My Love
EXTD=
EXTT0=
EXTT1=
EXTT2=
EXTT3=
EXTT4=
EXTT5=
EXTT6=
EXTT7=
EXTT8=
EXTT9=
EXTT10=
EXTT11=
EXTT12=
EXTT13=
EXTT14=
EXTT15=
EXTT16=
EXTT17=
EXTT18=
EXTT19=
EXTT20=
EXTT21=
EXTT22=
PLAYORDER=
